<?xml version="1.0" encoding="UTF-8"?>
<svg version="1.1" xmlns="http://www.w3.org/2000/svg" width="48" height="48">
<path d="M0 0 C15.84 0 31.68 0 48 0 C48 15.84 48 31.68 48 48 C32.16 48 16.32 48 0 48 C0 32.16 0 16.32 0 0 Z " fill="#E3E3E3" transform="translate(0,0)"/>
<path d="M0 0 C2.97361628 1.78152067 5.42653612 3.85307225 7 7 C7.12335276 9.28919778 7.17558478 11.58251218 7.1875 13.875 C7.20167969 15.10992187 7.21585938 16.34484375 7.23046875 17.6171875 C7.01008227 20.85201284 6.49548881 22.24360886 5 25 C4.62719835 28.20835356 4.85526622 30.96982235 6 34 C7.84448423 35.48633195 9.58727709 36.23522406 11.7890625 37.09765625 C15.29146795 38.52708321 18.01310433 40.69760125 21 43 C21 43.33 21 43.66 21 44 C5.16 44 -10.68 44 -27 44 C-26.67 42.35 -26.34 40.7 -26 39 C-22.7471315 37.01505067 -19.39026513 35.57657352 -15.90625 34.0390625 C-12.63769036 32.21831095 -12.63769036 32.21831095 -12.09375 28.3984375 C-12.04412059 26.59937142 -12 24.79975049 -12 23 C-12.66 23 -13.32 23 -14 23 C-13.91262287 20.43593328 -13.80570881 17.87517784 -13.6875 15.3125 C-13.66494141 14.59126953 -13.64238281 13.87003906 -13.61914062 13.12695312 C-13.39455101 8.65557803 -12.84576902 5.64339549 -10 2 C-6.23124125 -0.51250583 -4.46849866 -0.53016086 0 0 Z " fill="#875E50" transform="translate(27,4)"/>
<path d="M0 0 C8.25 0 16.5 0 25 0 C25.33 1.32 25.66 2.64 26 4 C25.37351562 4.08636719 24.74703125 4.17273438 24.1015625 4.26171875 C23.28429687 4.40222656 22.46703125 4.54273438 21.625 4.6875 C20.40683594 4.87892578 20.40683594 4.87892578 19.1640625 5.07421875 C16.83247386 5.8193065 16.83247386 5.8193065 15.78125 8.0625 C14.78863308 11.7947396 14.29299537 15.47859165 13.875 19.3125 C13.78863281 20.05306641 13.70226563 20.79363281 13.61328125 21.55664062 C13.40265295 23.37038435 13.20047014 25.18510543 13 27 C13.66 27 14.32 27 15 27 C15.8125 30.1875 15.8125 30.1875 16 34 C12.04345384 39.93481924 6.83898164 40.89137198 0 44 C0 29.48 0 14.96 0 0 Z " fill="#D4D4D4" transform="translate(0,0)"/>
<path d="M0 0 C0.71614583 1.72526042 1.43229167 3.45052083 2.1484375 5.17578125 C3.06806692 7.26533932 3.06806692 7.26533932 5 10 C8.47132095 8.59070303 9.88093274 7.09394917 11.75 3.875 C12.17796875 3.15054688 12.6059375 2.42609375 13.046875 1.6796875 C13.36140625 1.12539063 13.6759375 0.57109375 14 0 C15.2684375 0.86625 15.2684375 0.86625 16.5625 1.75 C18.86113439 3.29329117 21.19377902 4.67674365 23.625 6 C27 8 27 8 31 12 C15.16 12 -0.68 12 -17 12 C-16 7 -16 7 -13.1640625 4.98046875 C-11.41222656 4.09294922 -11.41222656 4.09294922 -9.625 3.1875 C-8.46226563 2.58292969 -7.29953125 1.97835937 -6.1015625 1.35546875 C-3 0 -3 0 0 0 Z " fill="#2D3048" transform="translate(17,36)"/>
<path d="M0 0 C0.33 0.99 0.66 1.98 1 3 C1.66 3.33 2.32 3.66 3 4 C3.05447047 5.41623216 3.09300508 6.83308191 3.125 8.25 C3.14820312 9.03890625 3.17140625 9.8278125 3.1953125 10.640625 C2.98110145 13.22829443 2.17841296 14.71769821 1 17 C1.020625 18.11375 1.04125 19.2275 1.0625 20.375 C0.99315073 24.39725745 0.00962759 26.56688619 -2 30 C-3.65 30 -5.3 30 -7 30 C-6.64950425 26.75791433 -6.43778819 25.38472296 -3.9375 23.1875 C-3.298125 22.795625 -2.65875 22.40375 -2 22 C-2.33 21.67 -2.66 21.34 -3 21 C-4.67542976 21.28604898 -6.34385343 21.61781233 -8 22 C-8 20.68 -8 19.36 -8 18 C-8.31151288 15.66365343 -8.64159778 13.32961443 -9 11 C-10.98 11.99 -10.98 11.99 -13 13 C-13.125 8.25 -13.125 8.25 -12 6 C-11.01 6 -10.02 6 -9 6 C-9 4.35 -9 2.7 -9 1 C-6.04335481 -0.4783226 -3.25770263 -0.06032783 0 0 Z " fill="#D99D8B" transform="translate(31,12)"/>
<path d="M0 0 C0.33 0 0.66 0 1 0 C1 1.98 1 3.96 1 6 C1.66 6 2.32 6 3 6 C3.8125 9.1875 3.8125 9.1875 4 13 C0.25797039 18.61304441 -5.95453442 20.45070728 -12 23 C-12 17.39 -12 11.78 -12 6 C-9.69 5.34 -7.38 4.68 -5 4 C-4.67 4.33 -4.34 4.66 -4 5 C-3.01 4.67 -2.02 4.34 -1 4 C-0.26676204 1.98491642 -0.26676204 1.98491642 0 0 Z " fill="#BEBEBE" transform="translate(12,21)"/>
<path d="M0 0 C3.375 2.0625 3.375 2.0625 6 5 C6.875 8.8125 6.875 8.8125 7 12 C6.01 11.67 5.02 11.34 4 11 C4 10.01 4 9.02 4 8 C2.39592672 7.97291433 0.7917215 7.95356517 -0.8125 7.9375 C-1.70582031 7.92589844 -2.59914063 7.91429687 -3.51953125 7.90234375 C-6.13413791 7.88990033 -6.13413791 7.88990033 -9 9 C-10.22969878 12.51190809 -10.22969878 12.51190809 -11 16 C-11.66 16 -12.32 16 -13 16 C-13.56707317 6.3597561 -13.56707317 6.3597561 -10 2 C-6.23124125 -0.51250583 -4.46849866 -0.53016086 0 0 Z " fill="#302E2E" transform="translate(27,4)"/>
<path d="M0 0 C0.845625 0.5775 1.69125 1.155 2.5625 1.75 C4.86113439 3.29329117 7.19377902 4.67674365 9.625 6 C13 8 13 8 17 12 C10.4 12 3.8 12 -3 12 C-3.66 10.68 -4.32 9.36 -5 8 C-4.1015625 5.859375 -4.1015625 5.859375 -2.625 3.75 C-2.14289062 3.04359375 -1.66078125 2.3371875 -1.1640625 1.609375 C-0.77992187 1.07828125 -0.39578125 0.5471875 0 0 Z " fill="#404664" transform="translate(31,36)"/>
<path d="M0 0 C0.66 0 1.32 0 2 0 C2.33 0.66 2.66 1.32 3 2 C3.66 1.34 4.32 0.68 5 0 C5.66 1.32 6.32 2.64 7 4 C6.34 4 5.68 4 5 4 C5 4.66 5 5.32 5 6 C8.54518884 4.60240095 8.54518884 4.60240095 12 3 C11.75 4.8125 11.75 4.8125 11 7 C9 8.5 9 8.5 7 10 C6.20376178 12.09415804 6.20376178 12.09415804 6 14 C7.32 14.33 8.64 14.66 10 15 C8.68 16.32 7.36 17.64 6 19 C3.59071265 18.03628506 2.23992991 17.34789837 0.75 15.1875 C-0.11081611 12.67678635 -0.14647297 10.63651351 0 8 C0.66 8.66 1.32 9.32 2 10 C2.66 9.01 3.32 8.02 4 7 C3.34 6.030625 2.68 5.06125 2 4.0625 C0 1 0 1 0 0 Z " fill="#A17665" transform="translate(18,28)"/>
<path d="M0 0 C0.66 0 1.32 0 2 0 C3.70159453 11.52164009 3.70159453 11.52164009 0 17 C-1.65 17 -3.3 17 -5 17 C-4.64950425 13.75791433 -4.43778819 12.38472296 -1.9375 10.1875 C-1.298125 9.795625 -0.65875 9.40375 0 9 C-0.33 8.67 -0.66 8.34 -1 8 C-2.67542976 8.28604898 -4.34385343 8.61781233 -6 9 C-6 7 -6 5 -6 3 C-3.69 3.33 -1.38 3.66 1 4 C0.67 2.68 0.34 1.36 0 0 Z " fill="#C79480" transform="translate(29,25)"/>
<path d="M0 0 C0.33 1.32 0.66 2.64 1 4 C2.65 3.01 4.3 2.02 6 1 C6.6875 3.25 6.6875 3.25 7 6 C5.5625 8.3125 5.5625 8.3125 4 10 C3.67 9.01 3.34 8.02 3 7 C3 10.57575896 4.08840607 12.05295935 6 15 C5.34 15 4.68 15 4 15 C3.67 15.99 3.34 16.98 3 18 C2.67 17.67 2.34 17.34 2 17 C1.34 17.66 0.68 18.32 0 19 C0 17.68 0 16.36 0 15 C-0.66 15 -1.32 15 -2 15 C-2 14.34 -2 13.68 -2 13 C-1.34 13 -0.68 13 0 13 C0 8.71 0 4.42 0 0 Z " fill="#9D6858" transform="translate(17,21)"/>
<path d="M0 0 C0.66 0 1.32 0 2 0 C2.71614583 1.72526042 3.43229167 3.45052083 4.1484375 5.17578125 C5.06806692 7.26533932 5.06806692 7.26533932 7 10 C8.65 9.67 10.3 9.34 12 9 C12.33 9.99 12.66 10.98 13 12 C8.71 12 4.42 12 0 12 C-0.99 9.36 -1.98 6.72 -3 4 C-2.01 3.67 -1.02 3.34 0 3 C0 2.01 0 1.02 0 0 Z " fill="#222235" transform="translate(15,36)"/>
<path d="M0 0 C0.99 0.33 1.98 0.66 3 1 C4.32 1 5.64 1 7 1 C11 1 11 1 14 2 C14.33 4.31 14.66 6.62 15 9 C14.01 8.67 13.02 8.34 12 8 C12 7.01 12 6.02 12 5 C10.41676312 4.972807 8.83338938 4.95351694 7.25 4.9375 C6.36828125 4.92589844 5.4865625 4.91429687 4.578125 4.90234375 C2.2181162 4.99173802 0.25501476 5.33087179 -2 6 C-2.33 5.01 -2.66 4.02 -3 3 C-2.01 2.01 -1.02 1.02 0 0 Z " fill="#141211" transform="translate(19,7)"/>
<path d="M0 0 C4.55671592 1.51890531 8.31723292 3.95402262 12 7 C12 7.33 12 7.66 12 8 C7.38 8 2.76 8 -2 8 C-1 2 -1 2 0 0 Z " fill="#46506F" transform="translate(36,40)"/>
<path d="M0 0 C0.66 0.33 1.32 0.66 2 1 C2 3.31 2 5.62 2 8 C3.65 7.67 5.3 7.34 7 7 C7.33 8.65 7.66 10.3 8 12 C6.68 12.33 5.36 12.66 4 13 C4 12.34 4 11.68 4 11 C3.01 10.67 2.02 10.34 1 10 C0.3125 7.9375 0.3125 7.9375 0 6 C-1.98 6.99 -1.98 6.99 -4 8 C-4.125 3.25 -4.125 3.25 -3 1 C-2.01 0.67 -1.02 0.34 0 0 Z " fill="#BA7E6E" transform="translate(22,17)"/>
<path d="M0 0 C2 1.5625 2 1.5625 4 4 C4.25 7.75 4.25 7.75 4 11 C3.34 11 2.68 11 2 11 C2 10.34 2 9.68 2 9 C0.02 9.33 -1.96 9.66 -4 10 C-4.33 8.68 -4.66 7.36 -5 6 C-3.35 5.34 -1.7 4.68 0 4 C0 2.68 0 1.36 0 0 Z " fill="#A7796C" transform="translate(30,12)"/>
<path d="M0 0 C0.66 0 1.32 0 2 0 C2.33 0.66 2.66 1.32 3 2 C3.66 1.34 4.32 0.68 5 0 C5.66 1.32 6.32 2.64 7 4 C6.34 4 5.68 4 5 4 C5 4.66 5 5.32 5 6 C8.54518884 4.60240095 8.54518884 4.60240095 12 3 C11.75 4.875 11.75 4.875 11 7 C8.9375 8.25 8.9375 8.25 7 9 C3.26115668 6.34345343 1.35021826 4.41889613 0 0 Z " fill="#B37C6B" transform="translate(18,28)"/>
<path d="M0 0 C2 2 2 2 2.125 4.625 C2.08375 5.40875 2.0425 6.1925 2 7 C1.01 6.67 0.02 6.34 -1 6 C-1 5.01 -1 4.02 -1 3 C-4.96 3 -8.92 3 -13 3 C-12.67 2.34 -12.34 1.68 -12 1 C-10.56260487 0.97287934 -9.12506137 0.95354933 -7.6875 0.9375 C-6.48673828 0.92009766 -6.48673828 0.92009766 -5.26171875 0.90234375 C-3 1 -3 1 0 2 C0 1.34 0 0.68 0 0 Z " fill="#4F3E39" transform="translate(32,9)"/>
<path d="M0 0 C1.65 0.99 3.3 1.98 5 3 C4.01 3.495 4.01 3.495 3 4 C2.67 4.99 2.34 5.98 2 7 C1.67 6.67 1.34 6.34 1 6 C0.34 6.66 -0.32 7.32 -1 8 C-1 6.68 -1 5.36 -1 4 C-1.66 4 -2.32 4 -3 4 C-3 3.34 -3 2.68 -3 2 C-2.01 1.34 -1.02 0.68 0 0 Z " fill="#815E4E" transform="translate(18,32)"/>
<path d="M0 0 C0.33 0 0.66 0 1 0 C1 1.65 1 3.3 1 5 C1.66 5 2.32 5 3 5 C3.33 4.01 3.66 3.02 4 2 C4 6.29 4 10.58 4 15 C3.67 15 3.34 15 3 15 C2.67 12.69 2.34 10.38 2 8 C1.34 8 0.68 8 0 8 C0 5.36 0 2.72 0 0 Z " fill="#9B8277" transform="translate(13,19)"/>
<path d="M0 0 C-3.75 2 -3.75 2 -6 2 C-6.33 3.32 -6.66 4.64 -7 6 C-7.99 5.67 -8.98 5.34 -10 5 C-9.625 3.0625 -9.625 3.0625 -9 1 C-6.04335481 -0.4783226 -3.25770263 -0.06032783 0 0 Z " fill="#B17C66" transform="translate(28,11)"/>
<path d="M0 0 C0.99 0 1.98 0 3 0 C3 0.66 3 1.32 3 2 C3.66 2 4.32 2 5 2 C4.67 3.32 4.34 4.64 4 6 C2.68 6 1.36 6 0 6 C0 4 0 2 0 0 Z " fill="#D4998D" transform="translate(23,28)"/>
<path d="M0 0 C1.65 0.33 3.3 0.66 5 1 C5 1.99 5 2.98 5 4 C3.02 4 1.04 4 -1 4 C-0.67 2.68 -0.34 1.36 0 0 Z " fill="#E7B3A3" transform="translate(24,12)"/>
<path d="M0 0 C0.33 0 0.66 0 1 0 C0.51171875 6.0546875 0.51171875 6.0546875 0 8 C-0.99 8.66 -1.98 9.32 -3 10 C-3 8.35 -3 6.7 -3 5 C-2.34 4.67 -1.68 4.34 -1 4 C-0.34786708 1.97536745 -0.34786708 1.97536745 0 0 Z " fill="#AFAFAF" transform="translate(12,21)"/>
</svg>
